<?xml version="1.0" encoding="UTF-8" standalone="no"?>
<!-- Created with Inkscape (http://www.inkscape.org/) -->

<svg
   width="64"
   height="64"
   viewBox="0 0 64 64"
   version="1.1"
   id="svg1"
   inkscape:version="1.4.3 (0d15f75042, 2025-12-25)"
   sodipodi:docname="selection.svg"
   xmlns:inkscape="http://www.inkscape.org/namespaces/inkscape"
   xmlns:sodipodi="http://sodipodi.sourceforge.net/DTD/sodipodi-0.dtd"
   xmlns="http://www.w3.org/2000/svg"
   xmlns:svg="http://www.w3.org/2000/svg">
  <sodipodi:namedview
     id="namedview1"
     pagecolor="#ffffff"
     bordercolor="#000000"
     borderopacity="0.25"
     inkscape:showpageshadow="2"
     inkscape:pageopacity="0.0"
     inkscape:pagecheckerboard="0"
     inkscape:deskcolor="#d1d1d1"
     inkscape:document-units="mm"
     showgrid="true"
     inkscape:zoom="16"
     inkscape:cx="5.40625"
     inkscape:cy="13.84375"
     inkscape:window-width="1280"
     inkscape:window-height="658"
     inkscape:window-x="0"
     inkscape:window-y="0"
     inkscape:window-maximized="1"
     inkscape:current-layer="layer1">
    <inkscape:grid
       id="grid1"
       units="px"
       originx="0"
       originy="0"
       spacingx="2"
       spacingy="2"
       empcolor="#0099e5"
       empopacity="0.30196078"
       color="#0099e5"
       opacity="0.14901961"
       empspacing="4"
       enabled="true"
       visible="true" />
  </sodipodi:namedview>
  <defs
     id="defs1">
    <inkscape:path-effect
       effect="mirror_symmetry"
       start_point="32,0"
       end_point="32,64"
       center_point="32,32"
       id="path-effect3"
       is_visible="true"
       lpeversion="1.2"
       lpesatellites=""
       mode="vertical"
       discard_orig_path="false"
       fuse_paths="false"
       oposite_fuse="false"
       split_items="false"
       split_open="false"
       link_styles="false" />
    <inkscape:path-effect
       effect="mirror_symmetry"
       start_point="0,32"
       end_point="64,32"
       center_point="32,32"
       id="path-effect1"
       is_visible="true"
       lpeversion="1.2"
       lpesatellites=""
       mode="horizontal"
       discard_orig_path="false"
       fuse_paths="false"
       oposite_fuse="false"
       split_items="false"
       split_open="false"
       link_styles="false" />
  </defs>
  <g
     inkscape:label="Layer 1"
     inkscape:groupmode="layer"
     id="layer1">
    <path
       style="fill:#79d3e2;fill-opacity:1"
       d="M 16,0 H 4 C 2,0 0,2 0,4 V 16 H 2 C 2,16 2,10 6,6 10,2 16,2 16,2 Z m 0,64 H 4 C 2,64 0,62 0,60 V 48 h 2 c 0,0 0,6 4,10 4,4 10,4 10,4 z M 48,0 h 12 c 2,0 4,2 4,4 V 16 H 62 C 62,16 62,10 58,6 54,2 48,2 48,2 Z m 0,64 h 12 c 2,0 4,-2 4,-4 V 48 h -2 c 0,0 0,6 -4,10 -4,4 -10,4 -10,4 z"
       id="path1"
       sodipodi:nodetypes="ccccczcc"
       inkscape:path-effect="#path-effect1;#path-effect3"
       inkscape:original-d="M 16,0 H 4 C 2,0 0,2 0,4 V 16 H 2 C 2,16 2,10 6,6 10,2 16,2 16,2 Z" />
  </g>
</svg>
